PathFileType	4	(X/Y/Z)	C:/Users/opensim2020/Desktop/walking_exp_matlab/subject06_walking21_straight_03.trc																																																																																																																																		
DataRate	CameraRate	NumFrames	NumMarkers	Units	OrigDataRate	OrigDataStartFrame	OrigNumFrames																																																																																																																														
100	100	4	44	mm	100	1862	110																																																																																																																														
Frame#	Time	LFHD			RFHD			LBHD			RBHD			C7			T10			CLAV			STRN			RBAK			LSHO			LUPA			LELB			LFRM			LWRA			LWRB			LFIN			RSHO			RUPA			RELB			RFRM			RWRA			RWRB			RFIN			LASI			RASI			LPSI			RPSI			LTHI			LKNE			LTIB			LANK			LHEE			LTOE			RTHI			RKNE			RTIB			RANK			RHEE			RTOE			*39			*40			*41			*42			*43		
		X1	Y1	Z1	X2	Y2	Z2	X3	Y3	Z3	X4	Y4	Z4	X5	Y5	Z5	X6	Y6	Z6	X7	Y7	Z7	X8	Y8	Z8	X9	Y9	Z9	X10	Y10	Z10	X11	Y11	Z11	X12	Y12	Z12	X13	Y13	Z13	X14	Y14	Z14	X15	Y15	Z15	X16	Y16	Z16	X17	Y17	Z17	X18	Y18	Z18	X19	Y19	Z19	X20	Y20	Z20	X21	Y21	Z21	X22	Y22	Z22	X23	Y23	Z23	X24	Y24	Z24	X25	Y25	Z25	X26	Y26	Z26	X27	Y27	Z27	X28	Y28	Z28	X29	Y29	Z29	X30	Y30	Z30	X31	Y31	Z31	X32	Y32	Z32	X33	Y33	Z33	X34	Y34	Z34	X35	Y35	Z35	X36	Y36	Z36	X37	Y37	Z37	X38	Y38	Z38	X39	Y39	Z39	X40	Y40	Z40	X41	Y41	Z41	X42	Y42	Z42	X43	Y43	Z43	X44	Y44	Z44
																																																																																																																																					
97	0.96	526.00244	1662.85229	-1059.52209	514.44177	1641.08496	-929.88049	399.39313	1598.86938	-1078.91235	388.20041	1582.01685	-951.18744	405.49854	1440.45435	-1027.23938	371.50562	1113.60828	-1033.93213	517.42535	1365.67041	-1025.47656	559.10028	1192.20203	-1041.30591	332.23129	1267.4375	-960.44769	464.16019	1402.11096	-1187.01697	477.41394	1205.97876	-1269.10303	487.2612	1095.13708	-1287.74988	576.81628	976.0459	-1303.69666	680.79565	911.17487	-1247.9104	640.23969	875.22919	-1293.39563	721.06116	838.83282	-1290.1936	463.2085	1390.96252	-864.98285	397.99442	1198.81616	-785.04993	389.01523	1077.07861	-772.63898	382.25101	957.33527	-751.58917	421.94952	808.54266	-770.30066	362.83865	821.11536	-740.16699	383.37027	739.23993	-732.50482	544.58008	952.49475	-1151.21753	561.48242	967.49426	-931.8894	388.08502	975.185	-1113.35583	406.90408	986.29181	-946.15479	487.95236	627.41528	-1200.98621	500.15009	464.89334	-1184.37219	304.62543	314.76706	-1183.99817	168.08365	210.71469	-1151.33948	134.83417	235.0052	-1106.0824	209.95744	69.01205	-1140.96863	561.21899	635.14856	-875.96564	595.74823	516.9328	-909.40387	566.04401	249.92511	-918.80725	559.52441	68.09782	-972.1449	521.76202	44.89432	-1018.5498	710.98096	34.33681	-964.10223	417.59915	1688.29114	-1009.3371	NaN	NaN	NaN	NaN	NaN	NaN	NaN	NaN	NaN	NaN	NaN	NaN
98	0.97	539.77484	1665.52869	-1057.99146	527.98444	1643.67236	-928.3407	413.31995	1601.22168	-1077.51477	402.02829	1584.31592	-949.82434	419.66144	1442.87683	-1025.93298	385.9108	1116.05615	-1032.50793	531.69531	1368.27466	-1024.13489	573.34027	1194.78491	-1039.87927	346.53024	1269.89429	-959.0343	478.54868	1404.61096	-1185.75732	489.89896	1208.10071	-1267.51782	498.51331	1096.97742	-1285.83618	583.9632	974.35175	-1302.76233	686.1134	905.36224	-1247.92053	643.88031	871.39435	-1293.47021	723.22552	831.51569	-1290.80432	477.23856	1393.57996	-863.72778	414.0304	1200.60693	-783.75391	406.86118	1078.9032	-771.14203	403.20782	959.03314	-750.34949	446.82867	811.71368	-768.63757	387.10696	822.25653	-739.10297	410.48904	741.461	-730.81677	558.42822	955.57867	-1150.00269	575.69446	968.81506	-930.99933	402.19662	978.02625	-1111.98254	421.43329	988.45734	-944.78143	508.62543	630.55798	-1199.34131	524.49249	468.31998	-1181.98206	331.50055	315.82489	-1183.34851	196.00879	209.42729	-1152.06824	161.15819	232.23007	-1106.76917	243.19481	70.03268	-1144.09021	570.97992	636.27985	-875.81927	602.32501	516.99738	-908.72235	568.63513	250.18683	-918.27679	559.72565	68.27191	-971.95178	521.52228	45.33613	-1018.57703	711.08569	34.09144	-963.93646	431.24719	1690.63928	-1007.76978	NaN	NaN	NaN	NaN	NaN	NaN	NaN	NaN	NaN	NaN	NaN	NaN
99	0.98	553.57489	1668.10535	-1056.50256	541.6571	1646.18823	-926.88983	427.25787	1603.58887	-1076.21326	415.81448	1586.6217	-948.63226	433.89655	1445.32666	-1024.8092	400.20013	1118.4585	-1031.08862	545.80847	1370.76648	-1022.85065	587.52722	1197.35095	-1038.54175	360.68912	1272.41016	-957.55072	492.86252	1407.04785	-1184.52551	502.31833	1210.21265	-1266.05225	509.6001	1098.65613	-1283.87451	590.77283	972.68884	-1301.94446	690.78375	899.54456	-1248.14966	646.69354	867.67542	-1293.70581	724.18658	823.93524	-1291.29382	491.20944	1396.19067	-862.54089	430.00409	1202.60693	-782.45459	424.75479	1080.80261	-769.89618	423.91757	960.9964	-748.81696	471.85101	815.26617	-767.15521	411.36084	823.63043	-738.14709	437.67535	743.9837	-729.31995	572.73187	958.62256	-1148.84631	589.79163	970.34052	-930.08856	416.36963	980.88464	-1110.72766	435.13678	990.56409	-943.43951	528.87024	633.88678	-1197.7052	548.47479	472.03003	-1179.74866	358.64731	315.9133	-1182.81836	224.45581	206.74846	-1152.57031	188.53568	227.84914	-1106.80457	277.15973	70.1022	-1147.04773	580.70984	637.39539	-875.44366	608.51636	517.08557	-907.97858	572.42041	250.3385	-917.79938	559.99933	68.49239	-971.71399	521.67725	45.65854	-1018.19244	711.047	33.88614	-963.44128	444.94229	1693.04211	-1006.48712	NaN	NaN	NaN	NaN	NaN	NaN	NaN	NaN	NaN	NaN	NaN	NaN
100	0.99	567.44666	1670.47302	-1055.04126	555.42957	1648.4939	-925.56677	441.27509	1605.9198	-1075.12085	429.49002	1588.85132	-947.55402	447.87173	1447.64099	-1023.7218	414.25485	1120.79028	-1029.52344	559.81329	1373.15369	-1021.66089	601.70001	1199.79895	-1037.25647	375.06015	1274.57227	-956.06293	507.09045	1409.3446	-1183.31616	514.71832	1212.29846	-1264.78333	520.35455	1100.43286	-1282.24963	597.08417	971.20691	-1301.25562	694.81775	893.84802	-1248.58374	648.94354	864.08417	-1293.93237	724.24341	816.39148	-1291.81738	505.24557	1398.69702	-861.44305	445.9418	1204.72949	-781.17108	442.40939	1082.79541	-768.55652	444.74023	963.02618	-747.57501	497.25845	819.16357	-765.43793	436.00021	825.35828	-737.25494	464.65088	746.73834	-728.23242	587.09357	961.52356	-1147.60474	603.66925	972.05182	-929.00293	430.64783	983.60699	-1109.7052	449.03918	992.49573	-942.41107	548.64343	637.36774	-1196.35144	571.89453	475.88623	-1177.78601	385.39105	315.20117	-1182.4187	253.80351	202.78673	-1152.68872	216.75876	221.87474	-1106.63477	312.9693	69.56684	-1149.57373	589.86835	638.34277	-875.26331	614.69696	517.03961	-907.03967	576.02692	250.4321	-917.47498	560.26068	68.72998	-971.53961	521.75134	46.01346	-1018.03192	711.32294	33.59272	-963.30273	458.72787	1695.31836	-1005.28619	NaN	NaN	NaN	NaN	NaN	NaN	NaN	NaN	NaN	NaN	NaN	NaN
